<?xml version="1.0" standalone="no"?>
<!DOCTYPE svg PUBLIC "-//W3C//DTD SVG 20010904//EN"
 "http://www.w3.org/TR/2001/REC-SVG-20010904/DTD/svg10.dtd">
<svg version="1.0" xmlns="http://www.w3.org/2000/svg"
 width="355.000000pt" height="355.000000pt" viewBox="0 0 355.000000 355.000000"
 preserveAspectRatio="xMidYMid meet">

<g transform="translate(0.000000,355.000000) scale(0.100000,-0.100000)"
fill="$color-primary" stroke="none">
<path d="M737 3120 c-3 -11 -1 -20 5 -20 5 0 6 -4 3 -10 -3 -5 -1 -10 5 -10 7
0 10 -7 6 -15 -3 -8 -1 -15 5 -15 6 0 9 -7 5 -15 -3 -8 -1 -15 5 -15 6 0 8 -4
4 -9 -3 -5 -1 -12 5 -16 6 -4 8 -11 5 -16 -4 -5 -1 -9 5 -9 7 0 10 -7 6 -15
-3 -8 -1 -15 5 -15 6 0 9 -7 5 -15 -3 -8 -1 -15 5 -15 6 0 8 -4 4 -9 -3 -5 -1
-12 5 -16 6 -4 8 -11 5 -16 -4 -5 -1 -9 5 -9 7 0 10 -7 6 -15 -3 -8 -1 -15 4
-15 6 0 9 -3 8 -7 -3 -15 14 -43 23 -37 5 3 9 0 9 -6 0 -6 5 -8 10 -5 6 3 13
-1 16 -9 3 -9 10 -13 15 -10 5 3 9 0 9 -6 0 -6 5 -8 10 -5 6 3 13 -1 16 -9 3
-9 10 -13 15 -10 5 3 9 0 9 -6 0 -6 5 -8 10 -5 6 3 13 -1 16 -9 3 -9 10 -13
15 -10 5 3 9 0 9 -6 0 -6 5 -8 10 -5 6 3 10 1 10 -5 0 -6 5 -8 10 -5 6 3 13
-1 16 -9 3 -9 10 -13 15 -10 5 3 9 0 9 -6 0 -6 5 -8 10 -5 6 3 13 -1 16 -9 3
-9 10 -13 15 -10 5 3 9 0 9 -7 0 -7 3 -9 7 -6 3 4 12 -1 20 -11 10 -11 12 -12
8 -2 -4 10 -2 9 8 -2 8 -10 17 -15 20 -11 4 3 7 1 7 -6 0 -7 5 -9 10 -6 6 3
13 -1 16 -9 3 -9 10 -13 15 -10 5 3 9 0 9 -6 0 -6 5 -8 10 -5 6 3 13 -1 16 -9
3 -9 10 -13 15 -10 5 3 9 0 9 -6 0 -6 5 -8 10 -5 6 3 10 0 10 -7 0 -9 3 -9 10
2 5 8 10 11 10 5 0 -5 5 -3 10 5 5 8 14 15 19 15 6 0 17 9 26 20 9 11 14 13
10 5 -4 -8 3 -4 14 10 11 14 21 21 21 16 0 -6 7 -1 15 10 8 10 15 15 15 9 0
-5 5 -3 10 5 5 8 14 15 19 15 6 0 17 9 26 20 9 11 14 13 10 5 -4 -8 3 -4 14
10 11 14 21 21 21 15 0 -5 5 -2 11 8 6 9 14 15 19 12 4 -3 11 2 14 11 3 8 10
13 15 10 5 -3 12 1 15 9 3 8 10 14 15 13 5 -2 17 6 26 17 9 11 14 13 10 5 -4
-8 3 -4 14 10 11 14 21 21 21 16 0 -6 7 -1 15 10 8 10 15 15 15 9 0 -5 5 -3
10 5 5 8 14 15 19 15 6 0 17 9 26 20 9 11 14 13 10 5 -4 -8 3 -4 14 10 11 14
21 21 21 15 0 -5 5 -2 11 8 6 9 14 15 19 12 4 -3 11 2 14 11 3 8 10 13 15 10
5 -3 12 1 15 10 9 25 8 26 -23 19 -17 -3 -32 -2 -36 4 -3 6 -17 8 -30 5 -12
-3 -26 -1 -30 6 -4 6 -15 8 -26 5 -10 -4 -24 -3 -31 2 -13 8 -49 13 -100 13
-15 1 -30 5 -33 10 -4 6 -17 7 -30 4 -12 -3 -26 -1 -30 5 -3 6 -17 8 -30 5
-12 -3 -26 -1 -30 6 -4 7 -18 9 -35 5 -16 -3 -31 -2 -35 4 -3 6 -17 8 -30 5
-12 -3 -26 -1 -30 6 -4 6 -15 8 -26 5 -10 -4 -24 -3 -31 2 -13 8 -49 13 -100
13 -15 1 -30 5 -33 10 -4 6 -17 7 -30 4 -12 -3 -26 -1 -30 5 -3 6 -17 8 -30 5
-12 -3 -26 -1 -30 6 -4 7 -18 9 -35 5 -16 -3 -31 -2 -35 4 -3 6 -17 8 -30 5
-12 -3 -26 -1 -30 5 -3 6 -17 8 -30 5 -12 -3 -26 -1 -29 5 -4 6 -20 8 -35 5
-16 -4 -32 -1 -35 5 -4 6 -18 8 -31 5 -12 -3 -26 -1 -29 5 -11 17 -23 13 -29
-9z m633 -163 c0 -5 5 -5 10 -2 6 3 10 1 10 -5 0 -6 4 -9 9 -6 5 3 14 -1 21
-9 7 -8 9 -15 4 -15 -5 0 -2 -5 6 -10 36 -23 -5 -119 -44 -104 -9 3 -16 1 -16
-6 0 -6 -5 -8 -10 -5 -6 4 -8 10 -5 15 3 4 0 10 -7 12 -9 3 -8 9 4 22 10 9 21
18 25 19 4 1 6 7 4 12 -2 6 -4 15 -4 22 0 7 -4 10 -9 7 -4 -3 -8 -1 -8 3 0 14
-54 9 -70 -6 -11 -11 -12 -15 -2 -19 6 -2 12 -10 12 -18 0 -11 -9 -14 -30 -12
-17 2 -30 7 -30 11 0 4 -8 15 -18 25 -18 18 -75 22 -90 8 -10 -11 -11 -36 -1
-36 5 0 8 -6 7 -12 -2 -7 5 -12 15 -10 9 2 17 -2 17 -8 0 -5 11 -10 25 -10 14
0 25 -4 25 -9 0 -5 3 -16 6 -25 5 -12 -1 -16 -24 -16 -17 0 -33 4 -37 10 -3 5
-12 7 -20 3 -8 -3 -15 0 -15 7 0 6 -4 9 -9 6 -17 -11 -53 42 -54 81 -2 37 19
77 35 67 4 -3 8 -1 8 4 0 14 111 7 119 -7 5 -8 12 -6 24 7 13 14 30 18 67 18
28 -1 50 -5 50 -9z"/>
<path d="M635 3081 c3 -11 1 -22 -5 -26 -6 -4 -8 -15 -5 -25 3 -10 2 -21 -4
-24 -5 -3 -7 -15 -4 -26 3 -12 0 -20 -7 -20 -7 0 -9 -8 -5 -19 3 -11 2 -22 -4
-25 -5 -3 -7 -15 -4 -26 3 -12 0 -20 -7 -20 -7 0 -10 -7 -6 -16 4 -9 2 -22 -3
-28 -5 -6 -12 -22 -16 -36 l-8 -25 20 24 c18 22 19 22 33 5 14 -18 14 -18 -5
-5 -11 8 3 -7 30 -33 30 -28 45 -49 38 -52 -7 -3 -9 -12 -6 -20 3 -8 0 -14 -7
-14 -6 0 -8 -4 -5 -10 10 -17 -12 -11 -26 7 -12 15 -12 16 1 8 8 -4 4 4 -9 18
-14 15 -25 27 -25 27 -1 0 -1 -45 0 -100 0 -55 -3 -100 -8 -100 -4 0 -5 -7 -2
-15 4 -8 1 -15 -6 -15 -6 0 -8 -4 -5 -10 3 -5 1 -10 -5 -10 -6 0 -8 -4 -5 -10
3 -5 1 -10 -6 -10 -7 0 -9 -3 -6 -7 9 -9 -13 -34 -24 -27 -5 3 -9 0 -9 -7 0
-9 -3 -9 -14 0 -17 14 -29 0 -20 -22 3 -8 1 -18 -4 -21 -6 -3 -8 -15 -5 -26 3
-12 0 -20 -7 -20 -7 0 -9 -8 -5 -19 3 -11 1 -22 -5 -26 -6 -4 -8 -15 -5 -25 3
-10 2 -21 -4 -24 -5 -3 -7 -15 -4 -26 3 -12 0 -20 -7 -20 -7 0 -9 -8 -5 -19 3
-11 2 -22 -4 -25 -5 -3 -7 -15 -4 -26 3 -12 0 -20 -7 -20 -7 0 -10 -7 -6 -16
4 -9 1 -23 -5 -30 -11 -14 -4 -34 12 -34 6 0 7 5 4 10 -3 6 -1 10 5 10 6 0 8
5 5 10 -3 6 -1 10 5 10 6 0 8 5 5 10 -3 6 -1 10 5 10 6 0 8 5 5 10 -3 6 -1 10
5 10 6 0 8 5 5 10 -3 6 -1 10 5 10 6 0 8 5 5 10 -3 6 -1 10 5 10 6 0 8 5 5 10
-3 6 -1 10 5 10 6 0 8 5 5 10 -3 6 -2 10 3 10 5 0 9 6 9 14 0 22 25 76 35 76
5 0 6 5 3 10 -3 6 -1 10 5 10 6 0 8 5 5 10 -3 6 -1 10 5 10 6 0 8 5 5 10 -3 6
-1 10 5 10 6 0 8 5 5 10 -3 6 -1 10 5 10 6 0 8 5 5 10 -3 6 -1 10 5 10 6 0 8
5 5 10 -3 6 -1 10 5 10 6 0 8 5 5 10 -3 6 -1 10 5 10 6 0 8 5 5 10 -3 6 -1 10
5 10 6 0 8 5 5 10 -3 6 -1 10 5 10 6 0 8 5 5 10 -3 6 -2 10 3 10 5 0 9 6 9 14
0 22 25 76 35 76 5 0 6 5 3 10 -3 6 -1 10 5 10 6 0 8 5 5 10 -3 6 -1 10 5 10
6 0 8 5 5 10 -3 6 -1 10 5 10 6 0 8 5 5 10 -3 6 -1 10 5 10 6 0 8 5 5 10 -3 6
-1 10 5 10 6 0 8 5 5 10 -3 6 -1 10 5 10 6 0 8 5 5 10 -3 6 -1 10 5 10 6 0 8
5 5 10 -3 6 -1 10 5 10 6 0 8 5 5 10 -3 6 -1 10 5 10 6 0 8 5 5 10 -3 6 0 10
7 10 10 0 10 2 -1 9 -7 5 -10 14 -7 20 4 6 2 11 -4 11 -7 0 -10 7 -6 15 3 8 1
15 -5 15 -6 0 -8 4 -4 9 3 5 1 12 -5 16 -6 4 -8 11 -5 16 4 5 1 9 -5 9 -7 0
-10 7 -6 15 3 8 1 15 -5 15 -6 0 -9 7 -5 15 3 8 1 15 -5 15 -6 0 -8 4 -4 9 3
5 1 12 -5 16 -6 4 -8 11 -5 16 4 5 1 9 -5 9 -7 0 -10 7 -6 15 3 8 1 15 -5 15
-6 0 -9 7 -5 15 3 8 0 15 -6 15 -6 0 -8 3 -5 7 4 3 2 12 -4 20 -6 7 -8 13 -3
13 11 0 -18 20 -29 20 -5 0 -6 -9 -2 -19z"/>
<path d="M1996 2855 c-3 -9 -10 -14 -15 -11 -5 3 -12 -1 -15 -10 -3 -8 -10
-13 -15 -10 -5 3 -12 -1 -15 -10 -3 -8 -10 -13 -15 -10 -5 3 -12 -1 -15 -9 -3
-8 -10 -14 -15 -13 -5 2 -17 -6 -26 -17 -9 -11 -14 -13 -10 -5 4 8 -3 4 -14
-10 -11 -14 -21 -20 -21 -15 0 6 -5 2 -11 -8 -6 -9 -14 -15 -19 -12 -4 3 -11
-2 -14 -11 -3 -8 -10 -13 -15 -9 -6 3 -14 -3 -20 -12 -6 -10 -11 -13 -11 -8 0
6 -10 -1 -21 -15 -11 -14 -18 -18 -14 -10 4 8 -3 4 -14 -10 -11 -14 -21 -20
-21 -15 0 6 -5 2 -11 -8 -6 -9 -14 -15 -19 -12 -4 3 -11 -2 -14 -11 -3 -8 -10
-12 -16 -9 -6 3 -13 -1 -16 -9 -3 -9 -10 -14 -15 -11 -4 3 -13 -4 -19 -15 -6
-11 -15 -18 -19 -15 -5 3 -12 -2 -15 -11 -3 -8 -10 -13 -15 -10 -5 3 -12 -1
-15 -10 -3 -8 -10 -13 -15 -10 -5 3 -12 -1 -15 -10 -3 -8 -10 -13 -15 -9 -6 3
-14 -2 -19 -11 -5 -9 -13 -14 -17 -12 -12 4 -14 -54 -3 -69 6 -7 7 -21 3 -32
-3 -10 -1 -22 5 -26 7 -4 9 -18 6 -30 -3 -13 -1 -27 5 -30 6 -4 8 -18 5 -30
-3 -13 -1 -27 5 -30 6 -4 8 -18 5 -31 -4 -15 -2 -24 5 -24 7 0 9 -10 7 -25 -3
-14 -1 -28 4 -31 5 -4 7 -17 4 -29 -3 -13 -1 -27 5 -30 6 -4 8 -18 5 -30 -3
-13 -1 -27 5 -30 6 -4 8 -18 5 -30 -3 -13 -1 -27 5 -31 6 -3 9 -15 6 -25 -3
-10 -1 -17 4 -16 5 1 25 -16 45 -38 19 -22 33 -33 29 -25 -3 8 10 -3 29 -24
l36 -40 -27 -28 -27 -28 -29 33 c-16 17 -24 23 -17 12 7 -11 -11 5 -40 35 -29
30 -49 48 -45 40 3 -8 0 -7 -9 4 -13 16 -19 17 -45 6 -19 -7 -45 -10 -67 -6
-21 4 -41 3 -48 -3 -7 -6 -35 -11 -62 -11 -27 0 -76 -2 -109 -5 -58 -6 -105
-10 -230 -21 -33 -3 -85 -7 -115 -10 -30 -2 -80 -6 -110 -7 -30 -2 -64 -8 -75
-15 -18 -10 -16 -11 11 -6 18 3 34 1 38 -5 4 -6 20 -8 35 -5 16 4 32 1 35 -5
4 -6 18 -8 31 -5 12 3 26 1 29 -5 4 -6 20 -8 35 -5 16 4 32 1 35 -5 4 -6 18
-8 32 -5 13 3 30 1 38 -5 7 -6 21 -9 30 -5 9 3 22 2 29 -4 6 -6 24 -8 38 -5
20 4 25 10 22 23 -3 10 1 21 8 25 8 6 10 4 5 -6 -6 -10 -4 -10 6 1 14 17 108
24 108 8 0 -5 4 -7 9 -4 5 4 11 0 14 -6 3 -10 8 -10 18 1 12 12 12 13 0 6 -10
-6 -12 -4 -7 4 5 7 14 10 22 7 7 -3 16 -1 19 4 8 13 62 13 70 0 4 -6 15 -8 26
-5 11 4 19 2 19 -5 0 -6 5 -8 10 -5 6 3 10 1 10 -6 0 -7 3 -9 7 -6 9 9 34 -13
27 -24 -3 -5 0 -9 6 -9 6 0 8 -4 5 -10 -3 -5 -1 -10 5 -10 7 0 8 -6 2 -17 -8
-13 -5 -20 14 -29 13 -7 32 -10 42 -7 29 7 35 -12 9 -33 l-22 -19 20 25 20 25
-22 -19 c-13 -10 -20 -22 -18 -27 3 -4 -28 -38 -69 -75 -68 -61 -88 -92 -52
-78 8 3 17 1 20 -5 4 -6 13 -8 20 -5 8 3 17 1 20 -5 4 -6 13 -8 21 -4 8 3 15
0 15 -7 0 -7 8 -9 20 -5 12 4 20 2 20 -5 0 -7 8 -9 20 -5 12 4 20 2 20 -5 0
-7 8 -9 20 -5 11 4 20 2 20 -4 0 -6 6 -8 14 -5 8 3 17 0 21 -5 3 -6 11 -9 16
-6 5 4 14 3 21 -1 16 -10 68 -11 68 -1 0 5 5 5 10 2 6 -3 10 -1 10 5 0 6 5 8
10 5 6 -3 10 -1 10 5 0 6 5 8 10 5 6 -3 10 -1 10 6 0 7 3 10 6 6 4 -3 13 1 21
9 9 8 22 13 29 10 8 -3 14 -1 14 5 0 6 5 7 10 4 6 -3 10 -1 10 5 0 6 5 8 10 5
6 -3 10 -1 10 5 0 6 5 8 10 5 6 -3 10 -1 10 5 0 6 5 8 10 5 6 -3 10 -2 10 3 0
12 56 33 64 25 3 -4 6 -1 6 6 0 7 5 9 10 6 6 -3 10 -1 10 5 0 6 5 8 10 5 6 -3
10 -1 10 5 0 6 5 8 10 5 6 -3 10 -1 10 5 0 6 5 8 10 5 6 -3 10 -1 10 5 0 6 4
9 9 6 5 -4 11 -1 13 4 2 6 13 12 26 13 12 0 22 5 22 10 0 4 5 5 10 2 6 -3 10
-1 10 5 0 6 5 8 10 5 6 -3 10 -1 10 5 0 6 5 8 10 5 6 -3 12 0 15 7 3 7 4 182
3 388 l-3 375 -62 -59 c-35 -32 -60 -62 -58 -66 3 -5 -33 -43 -80 -86 -46 -42
-83 -80 -80 -84 2 -4 -11 -22 -30 -40 -34 -33 -35 -34 -34 -9 0 13 3 18 6 11
2 -6 9 -10 14 -6 5 3 5 13 -2 25 -7 15 -7 24 1 34 7 8 9 19 5 25 -4 6 -2 17 4
24 6 7 9 20 5 29 -3 8 0 18 6 22 6 4 8 15 5 25 -3 10 -1 21 5 25 6 4 8 15 5
25 -3 10 -1 21 5 25 6 4 8 15 5 25 -3 10 -2 21 4 24 5 3 7 15 4 25 -3 10 0 22
5 25 6 3 8 15 5 25 -3 10 0 22 5 25 6 3 8 15 5 25 -3 10 0 22 5 25 6 3 8 15 5
26 -3 11 0 20 6 20 7 0 9 9 5 25 -4 16 -2 25 5 25 7 0 9 9 5 25 -4 16 -2 25 5
25 7 0 9 9 5 25 -4 16 -2 25 6 25 7 0 10 7 6 16 -4 9 -1 23 5 30 6 7 8 18 4
24 -4 6 -1 17 5 25 6 8 9 19 5 25 -4 6 -1 17 5 25 6 8 9 19 5 25 -4 6 -1 18 6
26 8 10 9 18 2 25 -7 7 -12 5 -17 -6z m-149 -560 c0 -8 -7 -17 -14 -19 -8 -3
-12 -10 -8 -15 3 -5 1 -12 -3 -15 -5 -3 -28 15 -52 39 -39 40 -45 43 -56 27
-7 -9 -10 -29 -7 -44 4 -18 1 -28 -6 -28 -8 0 -10 -8 -6 -19 3 -11 1 -22 -4
-25 -6 -4 -8 -13 -4 -21 3 -8 0 -15 -6 -15 -6 0 -8 -7 -5 -15 4 -8 2 -15 -3
-15 -5 0 -10 -10 -10 -22 -1 -13 -7 -24 -13 -26 -5 -2 -8 -8 -4 -13 3 -5 0 -9
-6 -9 -6 0 -9 -4 -6 -9 3 -5 0 -14 -7 -20 -11 -8 -19 -5 -37 14 -13 14 -18 25
-11 25 7 0 9 5 6 10 -3 6 -1 10 5 10 6 0 8 5 5 10 -3 6 -1 10 5 10 6 0 8 5 5
10 -3 6 -1 10 5 10 6 0 8 5 5 10 -3 6 -1 10 5 10 6 0 9 4 5 9 -3 5 -1 12 5 16
6 4 8 10 5 15 -3 5 -1 11 5 15 6 4 8 10 5 15 -3 5 -1 11 5 15 6 4 8 11 4 16
-3 5 -1 16 5 23 6 7 9 21 5 30 -3 9 -1 23 6 31 7 8 10 26 6 40 -4 15 -2 25 4
25 6 0 8 5 5 10 -3 6 1 13 9 16 9 3 13 11 10 18 -4 6 27 -22 68 -62 41 -40 75
-79 75 -87z m263 -48 c0 -2 -12 -14 -27 -28 l-28 -24 24 28 c23 25 31 32 31
24z m-205 -387 c4 -6 9 -9 13 -7 4 2 14 -4 22 -13 17 -18 23 -80 8 -80 -5 0
-7 -4 -4 -8 3 -5 -7 -9 -23 -10 -25 -1 -28 2 -26 32 2 30 0 33 -24 32 -32 -2
-53 -14 -46 -27 4 -5 2 -9 -2 -9 -5 0 -9 -9 -9 -19 0 -11 4 -17 8 -15 4 3 8 0
8 -6 0 -6 4 -9 9 -5 5 3 12 1 16 -5 3 -5 1 -10 -5 -10 -6 0 -9 -4 -6 -9 9 -14
-22 -34 -46 -29 -29 4 -63 -29 -63 -62 1 -26 0 -25 62 -16 7 1 16 6 20 11 4 4
1 5 -7 0 -12 -6 -13 -5 -3 5 16 18 55 23 63 10 4 -6 -9 -27 -29 -47 -31 -31
-43 -37 -84 -38 -26 -1 -55 4 -64 10 -17 13 -27 95 -11 95 5 0 6 5 3 10 -3 6
-1 10 5 10 6 0 9 4 6 9 -7 11 28 43 37 34 4 -3 7 -1 7 6 0 7 5 9 11 5 8 -4 9
3 4 25 -4 20 -3 31 5 31 6 0 8 5 5 10 -3 6 -1 10 4 10 6 0 10 3 9 8 -4 11 35
52 44 46 4 -3 8 0 8 6 0 6 4 9 9 5 5 -3 12 -1 16 5 3 5 15 10 25 10 10 0 22
-5 25 -10z m-45 -284 c0 -2 -8 -10 -17 -17 -16 -13 -17 -12 -4 4 13 16 21 21
21 13z"/>
<path d="M842 2703 c-6 -3 -10 -9 -6 -14 3 -5 0 -9 -6 -9 -6 0 -8 -4 -5 -10 3
-5 1 -10 -6 -10 -7 0 -10 -3 -6 -6 3 -4 -1 -21 -10 -38 -10 -17 -16 -34 -15
-38 1 -5 -3 -8 -9 -8 -5 0 -7 -4 -4 -10 3 -5 1 -10 -5 -10 -6 0 -8 -4 -5 -10
3 -5 1 -10 -5 -10 -6 0 -8 -4 -5 -10 3 -5 1 -10 -5 -10 -6 0 -8 -4 -5 -10 3
-5 1 -10 -5 -10 -6 0 -8 -4 -5 -10 3 -5 1 -10 -5 -10 -6 0 -8 -4 -5 -10 3 -5
2 -10 -2 -10 -5 0 -10 -10 -10 -22 -1 -13 -7 -24 -13 -26 -5 -2 -8 -8 -4 -13
3 -5 0 -9 -6 -9 -6 0 -8 -4 -5 -10 3 -5 1 -10 -5 -10 -6 0 -8 -4 -5 -10 3 -5
1 -10 -5 -10 -6 0 -8 -4 -5 -10 3 -5 1 -10 -5 -10 -6 0 -8 -4 -5 -10 3 -5 1
-10 -5 -10 -6 0 -8 -4 -5 -10 3 -5 1 -10 -5 -10 -6 0 -8 -4 -5 -10 3 -5 1 -10
-4 -10 -6 0 -10 -3 -9 -7 3 -16 -15 -63 -24 -63 -5 0 -6 -4 -3 -10 3 -5 1 -10
-5 -10 -6 0 -8 -4 -5 -10 3 -5 1 -10 -5 -10 -6 0 -8 -4 -5 -10 3 -5 1 -10 -5
-10 -6 0 -8 -4 -5 -10 3 -5 1 -10 -5 -10 -6 0 -8 -4 -5 -10 3 -5 1 -10 -5 -10
-6 0 -8 -4 -5 -10 3 -5 1 -10 -4 -10 -6 0 -10 -3 -9 -7 3 -16 -15 -63 -24 -63
-5 0 -6 -4 -3 -10 3 -5 1 -10 -5 -10 -6 0 -8 -4 -5 -10 3 -5 1 -10 -5 -10 -6
0 -8 -4 -5 -10 3 -5 1 -10 -5 -10 -6 0 -8 -4 -5 -10 3 -5 1 -10 -5 -10 -6 0
-8 -4 -5 -10 3 -5 1 -10 -5 -10 -6 0 -8 -4 -5 -10 3 -5 1 -10 -6 -10 -7 0 -9
-3 -6 -7 4 -3 1 -16 -7 -27 -13 -20 -12 -21 38 -19 52 3 149 10 246 18 30 3
87 7 125 10 102 8 237 19 370 30 33 3 88 6 122 8 68 2 82 9 63 32 -7 8 -9 22
-6 31 4 9 1 23 -5 30 -6 8 -9 20 -6 29 4 8 1 17 -4 21 -6 3 -8 17 -5 29 3 13
1 27 -5 30 -6 4 -8 18 -5 30 3 13 1 27 -5 30 -6 4 -8 18 -5 30 3 13 1 27 -5
30 -6 4 -8 18 -5 30 3 13 1 27 -5 30 -6 4 -8 18 -5 30 3 13 1 27 -5 30 -6 4
-8 18 -5 30 3 13 1 27 -5 31 -6 3 -9 15 -6 25 3 11 1 16 -4 13 -5 -3 -12 2
-15 10 -3 9 -10 13 -15 10 -5 -3 -9 0 -9 6 0 6 -5 8 -10 5 -6 -3 -13 1 -16 9
-3 9 -10 13 -15 10 -5 -3 -9 0 -9 6 0 6 -4 8 -10 5 -5 -3 -10 -1 -10 4 0 6 -7
11 -15 11 -8 0 -15 5 -15 11 0 5 -4 7 -10 4 -5 -3 -10 -1 -10 5 0 6 -5 8 -10
5 -6 -3 -13 1 -16 9 -3 9 -10 13 -15 10 -5 -3 -9 0 -9 6 0 6 -5 8 -10 5 -6 -3
-13 1 -16 9 -3 9 -10 13 -15 10 -5 -3 -9 0 -9 6 0 6 -4 9 -8 6 -5 -3 -18 3
-29 14 -12 10 -24 16 -27 13 -3 -4 -6 -1 -6 6 0 7 -5 9 -10 6 -6 -3 -13 1 -16
9 -3 9 -10 13 -15 10 -5 -3 -9 0 -9 6 0 6 -5 8 -10 5 -6 -3 -13 1 -16 9 -3 9
-10 13 -15 10 -5 -3 -9 0 -9 6 0 6 -4 9 -9 6 -5 -4 -11 -2 -13 2 -1 5 -9 7
-16 5z m222 -330 c4 -5 11 -8 14 -8 9 0 66 -57 68 -67 1 -5 2 -9 3 -10 7 -9 5
-78 -2 -78 -5 0 -5 -4 -2 -10 3 -5 1 -10 -5 -10 -6 0 -9 -4 -6 -8 3 -5 -10
-24 -29 -42 -19 -19 -35 -30 -35 -24 0 5 -5 1 -11 -9 -6 -9 -14 -15 -20 -12
-5 4 -12 -1 -15 -9 -3 -9 -10 -13 -15 -10 -5 3 -9 0 -9 -6 0 -6 -4 -8 -10 -5
-5 3 -10 1 -10 -4 0 -6 -3 -10 -7 -10 -5 1 -10 0 -13 -1 -18 -8 -100 -6 -100
3 0 6 -3 7 -7 4 -9 -9 -54 33 -47 44 3 5 0 9 -6 9 -6 0 -9 4 -5 9 3 5 1 12 -5
16 -12 7 -13 48 -2 59 4 4 7 12 7 16 0 5 9 16 20 25 11 9 14 14 8 10 -20 -10
-15 0 14 26 14 13 23 17 19 9 -4 -8 4 -1 18 15 14 17 26 26 26 20 0 -5 5 -2
11 8 6 9 14 15 20 12 5 -4 9 -1 9 5 0 6 5 8 10 5 6 -3 10 -1 10 5 0 6 4 9 9 5
5 -3 12 -1 16 4 3 6 12 8 19 5 8 -3 17 -1 21 5 7 13 28 14 39 4z"/>
<path d="M1032 2298 c-7 -7 -12 -9 -12 -4 0 4 -7 0 -16 -8 -8 -9 -20 -14 -25
-11 -5 4 -9 1 -9 -5 0 -6 -4 -9 -9 -5 -6 3 -15 -4 -21 -15 -6 -11 -14 -19 -18
-17 -12 5 -67 -59 -67 -79 0 -34 57 -53 83 -27 8 7 18 11 23 8 5 -4 9 -1 9 4
0 6 4 10 9 9 5 -2 17 6 26 17 9 11 14 13 10 5 -4 -8 0 -7 9 4 8 10 29 33 45
52 17 19 26 36 21 39 -6 4 -8 10 -5 15 3 5 0 12 -6 16 -8 5 -10 2 -5 -7 4 -8
1 -6 -7 4 -17 20 -19 21 -35 5z"/>
<path d="M535 2621 c3 -11 2 -22 -4 -25 -5 -3 -7 -15 -4 -26 3 -12 0 -20 -7
-20 -7 0 -10 -7 -6 -16 4 -9 1 -23 -5 -31 -7 -7 -9 -16 -6 -19 9 -9 48 6 42
17 -4 5 -2 9 4 9 6 0 8 7 5 15 -4 8 -1 22 6 30 9 11 9 22 0 50 -6 19 -16 35
-21 35 -6 0 -8 -9 -4 -19z"/>
<path d="M2260 1944 c0 -207 -2 -380 -5 -383 -2 -4 6 -8 18 -8 12 -1 23 -7 25
-13 2 -5 8 -8 13 -4 5 3 9 0 9 -6 0 -6 5 -8 10 -5 6 3 10 1 10 -5 0 -6 5 -8
10 -5 6 3 10 1 10 -5 0 -6 5 -8 10 -5 6 3 10 2 10 -2 0 -5 10 -10 22 -10 13
-1 24 -7 26 -13 2 -5 8 -8 13 -4 5 3 9 0 9 -6 0 -6 5 -8 10 -5 6 3 10 1 10 -5
0 -6 5 -8 10 -5 6 3 10 1 10 -5 0 -6 5 -8 10 -5 6 3 10 1 10 -5 0 -6 5 -8 10
-5 6 3 10 2 10 -2 0 -5 10 -10 22 -10 13 -1 24 -7 26 -13 2 -5 8 -8 13 -4 5 3
9 0 9 -6 0 -6 5 -8 10 -5 6 3 10 1 10 -5 0 -6 5 -8 10 -5 6 3 10 1 10 -5 0 -6
5 -8 10 -5 6 3 10 1 10 -5 0 -6 5 -8 10 -5 6 3 10 2 10 -4 0 -6 6 -8 14 -5 7
3 20 -2 29 -10 8 -8 17 -12 21 -9 3 4 6 2 6 -3 0 -11 40 -11 58 0 7 4 16 5 21
1 5 -3 13 0 16 6 4 5 13 8 21 5 7 -3 16 -1 20 5 3 6 12 8 20 5 7 -3 16 -1 20
5 3 6 12 8 20 5 7 -3 16 -1 20 5 3 6 12 8 20 5 7 -3 16 -1 20 5 3 6 12 8 20 5
7 -3 16 -1 20 5 3 6 12 8 20 5 7 -3 16 -1 20 5 3 6 12 8 20 5 25 -9 15 9 -26
49 -21 21 -37 42 -35 45 3 4 -56 65 -130 135 -74 70 -133 131 -130 135 3 4
-54 63 -125 130 -71 67 -128 126 -125 130 3 4 -56 65 -130 135 -74 70 -133
131 -130 135 3 5 1 11 -4 15 -7 3 -10 -130 -11 -371z m246 114 l29 -33 -32 29
c-31 28 -38 36 -30 36 2 0 16 -15 33 -32z m128 -210 c-3 -4 0 -8 6 -8 7 0 10
-7 6 -15 -3 -8 -1 -15 5 -15 6 0 7 -5 4 -11 -4 -6 -14 -8 -22 -5 -9 4 -22 1
-29 -5 -8 -6 -21 -8 -30 -5 -8 3 -22 -1 -31 -9 -14 -14 -14 -18 2 -35 10 -11
21 -17 25 -15 10 6 42 -30 34 -38 -3 -3 3 -12 15 -19 12 -7 21 -18 21 -25 0
-7 9 -17 20 -23 11 -6 18 -15 15 -19 -3 -5 2 -12 11 -15 8 -3 12 -10 9 -16 -3
-5 -1 -10 5 -10 6 0 8 -4 5 -10 -3 -5 -1 -10 5 -10 6 0 8 -4 5 -10 -3 -5 0
-10 7 -10 8 -1 7 -4 -4 -10 -24 -14 -64 -6 -60 13 1 8 -5 17 -13 21 -9 3 -13
10 -10 16 3 5 1 10 -5 10 -6 0 -9 4 -6 9 3 5 -1 12 -9 15 -8 3 -14 9 -13 14 2
5 -8 19 -22 31 -14 13 -18 19 -10 15 8 -4 -10 18 -40 49 -56 58 -67 67 -54 45
4 -7 -2 -5 -14 6 -12 10 -21 21 -20 25 0 3 -1 8 -2 11 -7 19 -7 39 1 34 6 -3
16 0 24 6 8 6 23 9 35 5 12 -4 20 -2 20 5 0 8 9 10 24 6 14 -3 27 -2 31 3 3 5
19 9 35 9 16 -1 27 -5 24 -10z m122 -50 l29 -33 -32 29 c-31 28 -38 36 -30 36
2 0 16 -15 33 -32z m260 -270 l29 -33 -32 29 c-31 28 -38 36 -30 36 2 0 16
-15 33 -32z"/>
<path d="M2570 1716 c0 -2 8 -10 18 -17 15 -13 16 -12 3 4 -13 16 -21 21 -21
13z"/>
<path d="M1869 2013 c-13 -16 -12 -17 4 -4 9 7 17 15 17 17 0 8 -8 3 -21 -13z"/>
<path d="M1084 1696 c-9 -10 -7 -16 10 -26 23 -15 75 -19 83 -7 6 11 -17 38
-27 32 -5 -3 -11 -1 -15 5 -9 14 -38 12 -51 -4z"/>
<path d="M1227 1692 c-6 -26 13 -37 63 -39 38 -1 46 2 46 17 0 10 -3 17 -7 14
-4 -2 -13 2 -21 9 -20 21 -75 19 -81 -1z"/>
<path d="M2206 1492 c-4 -7 -12 -10 -17 -7 -5 4 -9 1 -9 -5 0 -6 -4 -8 -10 -5
-5 3 -10 1 -10 -5 0 -6 -4 -8 -10 -5 -5 3 -10 1 -10 -5 0 -6 -4 -8 -10 -5 -5
3 -10 1 -10 -5 0 -6 -4 -8 -10 -5 -5 3 -10 1 -10 -5 0 -6 -4 -9 -9 -6 -5 4
-11 1 -13 -4 -2 -6 -13 -12 -26 -13 -12 0 -22 -5 -22 -10 0 -4 -4 -5 -10 -2
-5 3 -10 1 -10 -5 0 -6 -4 -8 -10 -5 -5 3 -10 1 -10 -5 0 -6 -4 -8 -10 -5 -5
3 -10 1 -10 -6 0 -7 -3 -10 -6 -6 -4 3 -13 -1 -21 -9 -9 -8 -22 -13 -29 -10
-8 3 -14 1 -14 -5 0 -6 -4 -7 -10 -4 -5 3 -10 1 -10 -5 0 -6 -4 -8 -10 -5 -5
3 -10 1 -10 -5 0 -6 -4 -8 -10 -5 -5 3 -10 1 -10 -5 0 -6 -4 -8 -10 -5 -5 3
-10 1 -10 -5 0 -6 -4 -9 -9 -6 -5 4 -11 1 -13 -4 -2 -6 -13 -12 -26 -13 -12 0
-22 -5 -22 -10 0 -4 -4 -6 -9 -3 -5 3 -11 -1 -15 -9 -3 -8 -1 -15 5 -15 6 0 7
-4 4 -10 -3 -5 -1 -10 5 -10 6 0 9 -4 6 -9 -3 -5 1 -12 10 -15 8 -3 12 -10 9
-16 -3 -5 -1 -10 5 -10 6 0 8 -4 5 -10 -3 -5 -1 -10 5 -10 6 0 9 -4 6 -9 -3
-5 1 -12 10 -15 8 -3 12 -10 9 -16 -3 -5 -1 -10 5 -10 6 0 9 -4 6 -9 -3 -5 1
-12 10 -15 8 -3 12 -10 9 -16 -3 -5 -1 -10 5 -10 6 0 8 -4 5 -10 -3 -5 -1 -10
5 -10 6 0 9 -4 6 -9 -3 -5 1 -12 10 -15 8 -3 12 -10 9 -16 -3 -5 -1 -10 5 -10
6 0 8 -4 5 -10 -3 -5 -1 -10 5 -10 6 0 9 -4 6 -9 -3 -5 1 -12 10 -15 8 -3 12
-10 9 -16 -3 -5 -1 -10 5 -10 6 0 9 -4 6 -9 -3 -5 1 -12 10 -15 8 -3 12 -10 9
-16 -3 -5 -1 -10 5 -10 6 0 8 -4 5 -10 -3 -5 -1 -10 5 -10 6 0 9 -4 6 -9 -3
-5 1 -12 10 -15 8 -3 12 -10 9 -16 -3 -5 -1 -10 5 -10 6 0 8 -4 5 -10 -3 -5
-1 -10 5 -10 6 0 9 -4 6 -9 -3 -5 1 -12 10 -15 8 -3 12 -10 9 -16 -3 -5 -1
-10 6 -10 7 0 10 -3 6 -6 -3 -3 3 -14 14 -25 11 -11 17 -24 14 -29 -4 -6 -1
-10 5 -10 6 0 9 -4 6 -9 -3 -5 1 -12 10 -15 8 -3 12 -10 9 -16 -3 -5 -1 -10 5
-10 6 0 8 -4 5 -10 -3 -6 -1 -10 5 -10 6 0 9 -4 6 -9 -3 -5 1 -12 10 -15 8 -3
12 -10 9 -16 -3 -5 -1 -10 6 -10 7 0 10 -3 6 -6 -3 -3 3 -14 14 -25 11 -11 17
-24 14 -29 -4 -6 -1 -10 5 -10 6 0 9 -4 6 -9 -3 -5 1 -12 10 -15 8 -3 13 -10
9 -15 -3 -5 0 -13 6 -17 8 -4 9 -3 5 5 -4 6 0 14 8 17 9 3 13 10 10 15 -3 5 0
9 6 9 6 0 8 5 5 10 -3 6 -1 10 5 10 6 0 8 5 5 10 -3 6 1 13 9 16 9 3 13 10 10
15 -3 5 0 9 6 9 6 0 8 4 5 10 -3 5 -1 10 5 10 6 0 8 5 5 10 -3 6 1 13 9 16 9
3 13 10 10 15 -3 5 0 9 6 9 6 0 8 5 5 10 -3 6 1 13 9 16 9 3 13 10 10 15 -3 5
0 9 6 9 6 0 8 5 5 10 -3 5 -1 10 5 10 6 0 8 5 5 10 -3 6 1 13 9 16 9 3 13 10
10 15 -3 5 0 9 6 9 6 0 8 4 5 10 -3 6 -1 10 5 10 6 0 8 5 5 10 -3 6 1 13 9 16
9 3 13 10 10 15 -3 5 0 9 6 9 6 0 9 4 6 8 -3 5 3 18 14 29 10 12 16 24 13 27
-4 3 -1 6 6 6 7 0 9 5 6 10 -3 6 1 13 9 16 9 3 13 10 10 15 -3 5 0 9 6 9 6 0
8 5 5 10 -3 6 -1 10 5 10 6 0 8 5 5 10 -3 6 1 13 9 16 9 3 13 10 10 15 -3 5 0
9 6 9 6 0 9 4 5 10 -3 5 3 18 14 29 11 11 17 22 14 25 -4 3 -1 6 6 6 7 0 9 5
6 10 -3 6 1 13 9 16 9 3 13 10 10 15 -3 5 0 9 6 9 6 0 8 5 5 10 -3 6 -1 10 5
10 6 0 8 5 5 10 -3 6 1 13 9 16 9 3 13 10 10 15 -3 5 0 9 6 9 6 0 9 4 5 10 -3
5 3 18 14 29 11 11 17 22 13 25 -3 3 -1 6 5 6 6 0 9 9 6 20 -3 11 -9 17 -14
14 -5 -3 -9 0 -9 6 0 6 -4 8 -10 5 -5 -3 -10 -1 -10 5 0 6 -4 8 -10 5 -5 -3
-10 -1 -10 5 0 6 -4 8 -10 5 -5 -3 -10 -1 -10 5 0 6 -4 8 -10 5 -5 -3 -10 -2
-10 4 0 6 -6 8 -14 5 -7 -3 -20 2 -29 10 -8 8 -17 12 -21 9 -3 -4 -6 -1 -6 6
0 7 -4 9 -10 6 -5 -3 -10 -1 -10 5 0 6 -4 8 -10 5 -5 -3 -10 -1 -10 5 0 6 -4
8 -10 5 -5 -3 -10 -1 -10 6 0 7 -3 10 -6 6 -8 -8 -64 13 -64 25 0 5 -4 6 -10
3 -5 -3 -10 -1 -10 5 0 6 -4 8 -10 5 -5 -3 -10 -1 -10 5 0 6 -4 8 -10 5 -5 -3
-10 -1 -10 5 0 6 -4 8 -10 5 -5 -3 -10 -2 -10 4 0 6 -6 8 -14 5 -7 -3 -20 2
-29 10 -8 8 -17 12 -21 9 -3 -4 -6 -1 -6 6 0 7 -4 10 -9 7 -5 -4 -11 -1 -13 6
-3 9 -6 9 -12 0z m54 -226 c0 -5 3 -7 6 -4 11 12 57 -42 57 -67 0 -14 2 -25 6
-25 8 0 6 -168 -2 -176 -3 -3 -3 -12 0 -20 3 -8 -1 -14 -8 -14 -7 0 -10 -2 -7
-6 9 -8 -46 -60 -59 -56 -7 2 -13 -1 -13 -7 0 -14 -57 -15 -65 -1 -4 6 -11 8
-16 4 -11 -7 -56 35 -51 48 1 5 -3 8 -9 8 -5 0 -8 4 -4 9 3 5 1 13 -5 16 -6 4
-8 15 -5 25 3 10 1 21 -5 25 -5 3 -10 30 -10 60 0 30 5 57 10 60 6 4 8 15 5
26 -4 11 -2 19 5 19 6 0 8 5 5 10 -9 14 21 59 45 68 28 10 120 9 120 -2z m50
-340 c0 -2 -8 -10 -17 -17 -16 -13 -17 -12 -4 4 13 16 21 21 21 13z"/>
<path d="M2174 1206 c-6 -6 -9 -17 -6 -24 2 -6 0 -12 -5 -12 -10 0 -9 -163 1
-179 4 -6 4 -11 0 -11 -4 0 6 -10 21 -21 20 -17 29 -19 35 -10 4 7 11 13 16
14 5 1 8 5 7 10 -2 4 0 7 5 7 11 0 16 82 10 170 -2 28 -8 42 -23 49 -37 17
-50 19 -61 7z"/>
<path d="M1329 1272 c37 -36 57 -59 45 -51 -11 8 9 -13 44 -47 36 -34 67 -69
68 -79 3 -22 31 -51 40 -42 4 4 0 15 -9 25 -27 30 -21 43 21 42 20 0 51 1 67
2 20 2 29 -1 27 -9 -1 -7 3 -13 9 -13 5 0 7 -4 4 -10 -3 -5 0 -10 7 -10 8 0 6
-5 -5 -11 -10 -6 -31 -7 -47 -4 -30 7 -41 -7 -18 -21 7 -5 9 -2 4 7 -4 8 -1 6
7 -3 8 -10 17 -15 20 -11 4 3 9 -2 13 -11 3 -9 10 -13 15 -10 5 3 9 0 9 -5 0
-6 4 -10 9 -9 5 2 17 -6 26 -17 9 -11 13 -13 9 -5 -4 8 7 2 24 -14 17 -16 29
-33 26 -38 -3 -4 2 -11 10 -14 9 -3 13 -10 10 -15 -3 -5 0 -9 6 -9 6 0 9 -4 5
-9 -3 -5 -1 -12 5 -16 15 -9 12 -45 -4 -51 -10 -4 -4 -15 22 -41 21 -20 26
-28 12 -18 -14 10 11 -17 55 -58 44 -42 79 -81 78 -86 -4 -14 99 -101 110 -94
5 3 3 9 -4 14 -8 5 -9 9 -4 9 6 0 2 5 -8 11 -9 6 -15 14 -12 20 4 5 1 9 -5 9
-6 0 -8 5 -5 10 3 6 1 10 -5 10 -6 0 -9 4 -6 9 3 5 -1 12 -10 15 -8 3 -12 10
-9 16 3 5 1 10 -5 10 -6 0 -8 5 -5 10 3 6 1 10 -5 10 -6 0 -9 4 -6 9 3 5 -1
12 -10 15 -8 3 -12 10 -9 16 3 5 1 10 -5 10 -6 0 -8 5 -5 10 3 6 1 10 -5 10
-6 0 -9 4 -6 9 3 5 -1 12 -10 15 -8 3 -12 10 -9 16 3 5 1 10 -5 10 -6 0 -8 5
-5 10 3 6 1 10 -5 10 -6 0 -9 4 -6 9 3 5 -1 12 -10 15 -8 3 -12 10 -9 16 3 5
1 10 -5 10 -6 0 -8 5 -5 10 3 6 1 10 -6 10 -7 0 -10 3 -6 6 3 3 -3 14 -14 25
-11 11 -17 24 -14 29 4 6 1 10 -5 10 -6 0 -8 5 -5 10 3 6 1 10 -5 10 -6 0 -9
4 -6 9 3 5 -1 12 -10 15 -8 3 -12 10 -9 16 3 5 1 10 -5 10 -6 0 -8 5 -5 10 3
6 1 10 -5 10 -6 0 -9 4 -6 9 3 5 -1 12 -10 15 -8 3 -12 10 -9 16 3 5 1 10 -5
10 -6 0 -8 5 -5 10 3 6 1 10 -5 10 -6 0 -9 4 -6 9 3 5 -1 12 -10 15 -8 3 -12
10 -9 16 3 5 1 10 -5 10 -6 0 -8 5 -5 10 3 6 1 10 -5 10 -6 0 -9 4 -6 9 3 5
-1 12 -10 15 -9 4 -14 9 -11 12 9 9 -16 32 -29 27 -7 -2 -15 0 -18 6 -4 6 -13
8 -21 4 -8 -3 -15 0 -15 7 0 7 -8 9 -20 5 -12 -4 -20 -2 -20 5 0 7 -8 9 -20 5
-11 -4 -20 -2 -20 4 0 6 -6 8 -14 5 -8 -3 -17 -1 -20 5 -4 6 -13 8 -20 5 -8
-3 -17 -1 -20 5 -4 6 -13 8 -20 5 -8 -3 -17 -1 -20 5 -4 6 -13 8 -20 5 -8 -3
-17 -1 -20 5 -4 6 -13 8 -21 4 -8 -3 -15 0 -15 5 0 6 -8 10 -18 9 -13 -1 0
-18 47 -65z m642 -679 c13 -16 12 -17 -3 -4 -10 7 -18 15 -18 17 0 8 8 3 21
-13z"/>
<path d="M3138 1333 c6 -2 10 -9 6 -14 -3 -5 -14 -4 -26 2 -15 8 -22 8 -28 0
-3 -7 -14 -9 -23 -5 -10 3 -17 1 -17 -6 0 -7 -8 -9 -20 -5 -12 4 -20 2 -20 -5
0 -7 -8 -9 -20 -5 -12 4 -20 2 -20 -5 0 -7 -8 -9 -20 -5 -12 4 -20 2 -20 -5 0
-7 -8 -9 -20 -5 -12 4 -20 2 -20 -5 0 -7 -8 -9 -20 -5 -12 4 -20 2 -20 -5 0
-7 -8 -9 -20 -5 -12 4 -20 2 -20 -5 0 -6 -8 -10 -17 -8 -10 2 -17 -3 -15 -9 1
-7 -3 -13 -9 -13 -5 0 -7 -5 -4 -10 3 -6 -1 -13 -9 -16 -9 -3 -13 -10 -10 -15
3 -5 0 -9 -6 -9 -6 0 -8 -4 -5 -10 3 -5 1 -10 -5 -10 -6 0 -8 -5 -5 -10 3 -6
-1 -13 -9 -16 -9 -3 -13 -10 -10 -15 3 -5 0 -9 -6 -9 -6 0 -8 -4 -5 -10 3 -5
1 -10 -5 -10 -6 0 -8 -5 -5 -10 3 -6 -1 -13 -9 -16 -9 -3 -13 -10 -10 -15 3
-5 0 -9 -6 -9 -6 0 -8 -4 -5 -10 3 -5 1 -10 -5 -10 -6 0 -8 -5 -5 -10 3 -6 -1
-13 -9 -16 -9 -3 -13 -10 -10 -15 3 -5 0 -9 -6 -9 -6 0 -8 -4 -5 -10 3 -5 1
-10 -5 -10 -6 0 -8 -5 -5 -10 3 -6 -1 -13 -9 -16 -9 -3 -13 -10 -10 -15 3 -5
0 -9 -6 -9 -6 0 -8 -4 -5 -10 3 -5 1 -10 -5 -10 -6 0 -8 -5 -5 -10 3 -6 -1
-13 -9 -16 -9 -3 -13 -10 -10 -15 3 -5 0 -9 -6 -9 -6 0 -8 -4 -5 -10 3 -5 1
-10 -5 -10 -6 0 -9 -4 -5 -10 3 -5 -3 -18 -14 -29 -11 -11 -17 -22 -13 -25 3
-3 0 -6 -7 -6 -7 0 -9 -4 -6 -10 3 -5 1 -10 -5 -10 -6 0 -8 -5 -5 -10 3 -6 -1
-13 -9 -16 -9 -3 -13 -10 -10 -15 3 -5 0 -9 -6 -9 -6 0 -8 -4 -5 -10 3 -5 1
-10 -5 -10 -6 0 -8 -5 -5 -10 3 -6 -1 -13 -9 -16 -9 -3 -13 -10 -10 -15 3 -5
0 -9 -6 -9 -6 0 -8 -4 -5 -10 3 -5 1 -10 -5 -10 -6 0 -8 -5 -5 -10 3 -6 -1
-13 -9 -16 -9 -3 -13 -10 -10 -15 3 -5 10 -6 16 -3 7 4 8 2 4 -4 -4 -6 -13 -9
-21 -5 -11 4 -13 1 -8 -13 5 -13 3 -15 -7 -9 -9 5 -11 4 -6 -4 4 -6 0 -14 -8
-17 -9 -3 -16 -11 -16 -17 0 -6 20 8 44 32 25 24 44 48 43 53 -1 5 34 43 78
85 44 41 69 68 55 58 -14 -10 10 16 53 57 74 73 92 96 63 85 -7 -3 -19 0 -25
6 -15 15 -14 47 1 47 6 0 8 3 5 7 -4 3 1 12 11 20 10 9 11 12 2 7 -8 -4 -4 5
9 19 13 15 27 25 30 23 11 -7 26 19 25 42 -1 12 3 22 9 22 6 0 7 3 4 7 -4 3 1
12 11 20 10 9 11 12 2 7 -8 -4 -2 7 14 24 16 17 32 29 37 27 4 -3 9 -1 11 5 2
6 12 12 23 14 11 2 25 5 30 6 6 1 13 1 18 0 4 -1 12 -3 19 -4 6 0 12 -9 14
-19 1 -11 4 -21 6 -23 2 -2 26 20 54 48 27 29 38 44 24 34 -14 -10 17 22 68
71 84 80 100 105 68 102 -6 0 -5 -3 2 -6z"/>
<path d="M2822 1073 c-7 -10 -10 -11 -6 -3 5 10 0 9 -14 -4 -24 -21 -29 -30
-9 -21 6 4 4 0 -5 -7 -17 -15 -13 -32 11 -40 15 -4 58 31 54 45 -2 4 1 7 6 7
15 0 6 35 -10 38 -8 1 -20 -6 -27 -15z"/>
<path d="M1551 1033 c7 -12 15 -20 18 -17 3 2 -3 12 -13 22 -17 16 -18 16 -5
-5z"/>
<path d="M1617 983 c-4 -3 0 -15 10 -25 9 -10 12 -18 8 -18 -5 0 9 -18 30 -40
21 -22 47 -40 57 -40 19 0 25 16 7 22 -5 2 -11 11 -12 19 -3 18 -36 54 -49 54
-5 0 -13 7 -18 15 -5 8 -10 11 -10 5 0 -5 -4 -4 -8 3 -5 7 -11 9 -15 5z m44
-60 c13 -16 12 -17 -3 -4 -17 13 -22 21 -14 21 2 0 10 -8 17 -17z"/>
<path d="M2715 924 c-11 -12 -21 -26 -22 -33 -4 -15 20 -14 35 1 7 7 12 9 12
4 0 -4 7 -1 15 8 8 8 15 21 15 28 0 21 -32 16 -55 -8z"/>
</g>
</svg>
